<?xml version="1.0" standalone="no"?>
<!DOCTYPE svg PUBLIC "-//W3C//DTD SVG 20010904//EN"
 "http://www.w3.org/TR/2001/REC-SVG-20010904/DTD/svg10.dtd">
<svg version="1.0" xmlns="http://www.w3.org/2000/svg"
 width="1024.000000pt" height="1024.000000pt" viewBox="0 0 1024.000000 1024.000000"
 preserveAspectRatio="xMidYMid meet">

<g transform="translate(0.000000,1024.000000) scale(0.100000,-0.100000)"
fill="#000000" stroke="none">
<path d="M0 5120 l0 -5120 5120 0 5120 0 0 5120 0 5120 -5120 0 -5120 0 0
-5120z m5138 3406 c61 -32 102 -97 102 -159 -1 -45 -33 -112 -64 -133 l-26
-17 4 -441 c3 -242 6 -458 7 -478 4 -43 -19 -74 -61 -83 -62 -14 -122 52 -104
112 4 16 9 222 11 459 l3 432 -34 20 c-41 24 -76 87 -76 134 0 47 39 119 79
145 40 27 117 31 159 9z m469 -117 c60 -22 113 -95 113 -154 0 -36 -35 -102
-66 -121 l-25 -17 1 -411 c1 -226 1 -417 1 -423 -2 -26 -41 -53 -77 -53 -72 0
-121 91 -79 146 12 16 14 78 15 375 l0 355 -31 23 c-42 32 -73 102 -64 150 19
105 118 166 212 130z m-1557 -564 l0 -155 -422 0 c-532 0 -590 -8 -720 -92
-92 -60 -168 -144 -217 -240 -70 -139 -71 -148 -71 -810 0 -324 -3 -588 -6
-588 -3 0 -14 5 -24 10 -13 7 -21 7 -25 0 -10 -15 -55 -12 -61 5 -4 8 -11 12
-16 9 -6 -4 -6 -9 2 -14 7 -4 -22 -8 -64 -8 -77 0 -86 4 -63 27 10 10 8 11 -7
5 -13 -5 -17 -4 -12 4 4 7 2 12 -4 12 -6 0 -8 -10 -4 -25 4 -15 2 -25 -5 -25
-8 0 -11 180 -11 646 0 557 2 655 16 716 77 336 356 615 670 667 27 5 273 9
547 10 l497 1 0 -155z m410 -143 c0 -286 1 -300 20 -317 20 -18 27 -75 14
-110 -8 -19 -55 -45 -83 -45 -33 0 -72 22 -84 49 -9 19 -12 118 -9 374 l4 347
69 0 69 0 0 -298z m2788 270 c197 -60 366 -184 469 -344 125 -193 153 -306
153 -620 0 -122 -4 -218 -9 -218 -14 0 -21 -29 -9 -36 6 -4 8 -3 4 4 -3 6 -2
13 3 17 6 3 10 -25 10 -75 0 -44 -4 -80 -10 -80 -8 0 -13 15 -10 33 1 5 -3 6
-9 2 -12 -7 5 -45 21 -45 5 0 4 -6 -3 -14 -9 -9 -20 -11 -36 -5 -30 11 -35 11
-27 -1 3 -5 14 -10 24 -10 17 0 35 -33 24 -44 -9 -9 -33 6 -33 21 0 8 -4 11
-10 8 -5 -3 -10 -1 -10 6 0 7 -3 10 -6 6 -10 -10 30 -56 49 -57 9 0 17 -4 17
-9 0 -5 -10 -7 -22 -3 -15 4 -19 2 -13 -7 4 -7 18 -11 31 -8 13 2 24 0 24 -4
0 -5 -15 -9 -32 -9 -18 0 -28 -4 -23 -8 15 -11 14 -49 -1 -49 -8 0 -14 4 -14
9 0 5 -5 6 -10 3 -6 -4 -8 -11 -5 -16 3 -5 -1 -6 -9 -3 -33 13 -3 39 32 28 10
-4 13 -2 7 3 -6 4 -12 22 -13 38 -2 17 -15 39 -30 51 -25 21 -38 54 -21 54 5
0 8 15 8 33 -2 27 -2 28 -6 7 -3 -14 -14 -38 -26 -54 -17 -24 -18 -28 -4 -23
11 4 14 2 11 -8 -3 -8 -13 -11 -21 -8 -11 4 -14 2 -11 -8 3 -8 11 -14 19 -14
8 0 14 -10 13 -23 0 -12 3 -22 8 -22 4 0 8 -8 7 -17 0 -11 -3 -13 -6 -5 -2 6
-11 12 -19 12 -8 0 -13 5 -12 11 2 6 -3 14 -11 17 -10 3 -12 0 -8 -12 4 -9 5
-16 3 -16 -3 0 -12 -3 -21 -6 -17 -7 -18 15 0 29 6 5 4 7 -5 4 -17 -4 -21 -26
-8 -44 14 -17 -5 -23 -31 -9 -21 11 -21 14 -6 20 14 5 15 9 5 20 -15 19 -49
16 -45 -4 1 -8 -1 -24 -6 -35 -5 -13 -8 9 -8 60 -1 52 4 86 12 94 10 11 10 13
0 7 -10 -6 -13 50 -13 263 0 299 -9 369 -60 478 -78 168 -233 296 -411 338
-53 12 -165 15 -671 15 l-608 0 0 155 0 156 678 -3 c669 -4 678 -4 750 -26z
m-3178 -562 c38 -38 19 -103 -33 -115 -12 -3 -197 -6 -412 -7 l-390 -3 -50
-27 c-62 -32 -85 -57 -122 -128 -27 -53 -28 -60 -31 -237 -3 -173 -2 -184 17
-209 27 -34 28 -91 1 -119 -19 -20 -20 -39 -22 -498 l-3 -477 178 0 177 0 0
164 c0 90 3 176 6 192 5 26 1 31 -33 49 -55 29 -85 86 -80 153 11 157 204 209
300 81 24 -34 33 -106 17 -153 -6 -20 -27 -50 -46 -68 l-34 -32 0 -234 0 -233
-25 -25 -25 -25 -560 2 c-307 0 -564 -2 -570 -6 -6 -4 -10 16 -10 58 l0 65
290 7 290 8 0 469 c0 461 0 469 -21 497 -25 34 -27 92 -5 126 13 20 16 56 16
197 0 182 9 238 50 323 28 58 101 139 154 170 86 50 120 54 554 54 389 1 403
0 422 -19z m2903 5 c37 -8 90 -26 118 -42 96 -52 177 -168 199 -282 6 -33 10
-306 10 -701 0 -582 2 -648 16 -654 9 -3 170 -6 359 -6 l343 0 34 34 c62 62
158 58 217 -9 39 -45 52 -92 39 -147 -16 -74 -74 -118 -153 -118 -56 0 -92 20
-124 66 l-24 34 -389 0 c-260 0 -396 4 -410 11 -48 26 -48 32 -48 762 0 789 3
755 -84 843 -85 85 -81 84 -623 84 l-464 0 -24 25 c-30 30 -31 54 -4 89 l20
26 462 0 c363 0 477 -3 530 -15z m-3396 -358 c22 -14 49 -37 60 -50 l20 -25
1437 -5 1437 -4 20 28 c25 36 92 75 141 84 85 16 188 -36 228 -115 48 -95 34
-187 -41 -262 -119 -119 -309 -74 -362 87 l-14 40 -1334 1 c-734 1 -1366 0
-1404 -3 l-70 -5 -28 -59 c-31 -67 -73 -103 -139 -120 -130 -35 -278 76 -278
208 0 176 185 289 327 200z m4289 -504 c-11 -11 -17 4 -9 23 7 18 8 18 11 1 2
-10 1 -21 -2 -24z m-105 -20 c12 -14 12 -16 0 -8 -9 5 -12 4 -7 -3 4 -6 14 -8
22 -5 12 5 15 -1 12 -27 -2 -19 -10 -36 -18 -38 -13 -5 -13 -3 -1 12 12 15 12
16 -5 10 -18 -5 -18 -5 0 10 16 13 17 16 4 16 -8 0 -21 7 -28 15 -9 11 -9 15
-1 15 7 0 9 5 6 10 -10 16 1 11 16 -7z m-1785 -36 c197 -40 337 -110 467 -236
145 -140 231 -286 279 -477 22 -86 23 -104 23 -554 0 -495 -1 -507 -52 -665
-51 -158 -125 -279 -242 -395 -93 -93 -195 -161 -304 -205 -150 -60 -198 -65
-693 -65 l-444 0 0 -840 0 -840 -70 0 -70 0 -2 433 c0 237 -1 701 -2 1029 l-1
598 85 1 c47 1 285 4 530 8 l445 7 65 27 c90 38 192 116 244 187 51 69 102
186 117 266 6 32 11 232 12 458 2 444 0 462 -65 596 -42 88 -151 196 -238 238
-131 64 -106 62 -972 62 l-788 0 0 -1325 0 -1325 -180 0 -180 0 0 1521 0 1520
978 -4 c853 -3 987 -6 1058 -20z m1637 -42 c-15 -11 -14 -14 14 -28 17 -9 33
-13 36 -10 4 3 13 0 21 -6 25 -21 40 -1 15 20 l-22 19 26 -2 c29 -3 36 -25 15
-46 -9 -9 -9 -12 -1 -12 7 0 15 10 18 21 6 16 9 18 15 8 5 -8 2 -18 -8 -27
-16 -13 -16 -13 1 -8 11 4 16 2 12 -5 -4 -6 -14 -8 -23 -4 -8 3 -20 0 -25 -7
-6 -9 -7 -8 -3 5 3 10 0 17 -7 17 -7 0 -13 -16 -14 -35 -2 -25 1 -35 11 -35
21 0 27 -15 17 -42 -7 -16 -10 -18 -10 -6 -1 9 -4 18 -8 21 -5 2 -2 2 5 1 6
-2 12 0 12 5 0 16 -39 19 -51 5 -8 -10 -8 -14 0 -14 6 0 11 -7 11 -16 0 -9 5
-12 12 -8 7 4 8 3 4 -4 -4 -7 -2 -12 5 -12 7 0 10 -3 6 -6 -7 -7 -42 16 -48
31 -2 6 -8 9 -12 7 -5 -1 -5 3 0 10 4 7 7 22 5 33 -2 19 -1 19 6 1 9 -21 19
-12 17 14 0 8 3 17 7 20 4 3 4 11 0 17 -6 9 -15 9 -36 -3 -16 -8 -31 -12 -34
-9 -3 3 0 5 6 5 7 0 5 10 -4 29 -11 23 -13 53 -5 78 1 1 8 0 16 -3 14 -6 13
-8 -2 -19z m-36 -92 c-3 -10 -5 -4 -5 12 0 17 2 24 5 18 2 -7 2 -21 0 -30z
m237 25 c-3 -5 -10 -6 -15 -3 -5 4 -9 1 -9 -4 0 -10 14 -15 32 -12 4 0 5 -5 2
-13 -3 -7 -13 -13 -22 -12 -9 0 -16 -5 -14 -12 1 -8 -2 -11 -9 -7 -8 5 -8 10
0 18 6 6 11 16 11 22 -1 5 -10 -1 -20 -14 -11 -13 -20 -19 -20 -13 0 5 7 15
15 22 9 7 14 19 11 26 -4 9 2 13 19 12 13 -1 21 -6 19 -10z m56 -14 c0 -8 -5
-12 -10 -9 -6 4 -8 11 -5 16 9 14 15 11 15 -7z m-10 -39 c14 -19 14 -19 -2 -6
-10 7 -18 18 -18 24 0 6 1 8 3 6 1 -2 9 -13 17 -24z m-234 2 c4 -4 0 -7 -10
-7 -10 0 -14 -5 -11 -11 4 -6 -2 -5 -14 2 -13 9 -16 16 -9 20 12 8 34 6 44 -4z
m194 -32 c-14 -17 -30 -20 -30 -4 0 5 4 8 9 4 5 -3 12 -1 16 5 3 5 9 10 12 10
3 0 0 -7 -7 -15z m-243 -47 c-2 -13 -4 -5 -4 17 -1 22 1 32 4 23 2 -10 2 -28
0 -40z m44 39 c-6 -8 -8 -17 -4 -21 4 -4 -1 -4 -11 0 -18 7 -18 8 0 21 23 17
30 17 15 0z m154 -18 c1 -11 -3 -23 -9 -26 -6 -3 -8 -3 -4 2 4 4 3 15 -2 25
-5 10 -6 20 -3 24 9 9 17 -1 18 -25z m90 13 c-3 -3 -11 0 -18 7 -9 10 -8 11 6
5 10 -3 15 -9 12 -12z m-15 -16 c0 -3 -4 -8 -10 -11 -5 -3 -10 -1 -10 4 0 6 5
11 10 11 6 0 10 -2 10 -4z m20 -26 c0 -5 -5 -10 -11 -10 -5 0 -7 5 -4 10 3 6
8 10 11 10 2 0 4 -4 4 -10z m-293 -52 c-3 -7 -5 -2 -5 12 0 14 2 19 5 13 2 -7
2 -19 0 -25z m0 -50 c-3 -7 -5 -2 -5 12 0 14 2 19 5 13 2 -7 2 -19 0 -25z
m217 24 c2 -4 0 -14 -6 -22 -8 -12 -9 -12 -5 2 3 9 1 19 -6 22 -9 3 -9 5 0 5
6 1 14 -3 17 -7z m-2022 -442 c57 -16 130 -70 165 -123 49 -73 55 -126 51
-410 -4 -231 -6 -257 -26 -308 -30 -75 -81 -132 -150 -166 l-57 -28 -557 -3
-558 -3 0 188 0 188 480 -3 481 -3 -1 256 c-1 140 -3 255 -5 255 -14 0 -35
-35 -30 -50 4 -12 -1 -22 -13 -29 -14 -8 -19 -7 -19 5 0 8 6 13 14 10 24 -10
13 14 -12 26 -14 6 -24 17 -21 23 2 6 -2 12 -9 12 -10 0 -11 -5 -4 -19 5 -10
7 -18 3 -18 -3 0 -1 -7 6 -15 7 -8 11 -15 9 -16 -35 -7 -36 -6 -34 22 1 16 -1
32 -6 35 -9 5 -12 -5 -12 -38 0 -10 -4 -15 -8 -12 -5 3 -7 9 -5 13 3 4 1 13
-5 21 -7 13 -9 12 -9 -2 0 -9 -6 -19 -12 -21 -10 -4 -9 -8 2 -17 12 -9 10 -10
-9 -5 -13 4 -21 3 -18 -2 3 -5 1 -15 -5 -23 -8 -12 -9 -12 -4 2 7 24 -4 28
-46 19 -29 -7 -38 -5 -43 6 -4 11 -1 13 10 9 10 -3 13 -2 10 5 -4 5 -12 8 -18
6 -14 -4 -20 -49 -7 -57 7 -4 6 -11 -5 -20 -13 -11 -15 -10 -9 4 3 9 1 16 -5
16 -6 0 -8 7 -4 17 4 11 3 14 -5 9 -7 -4 -12 -3 -12 1 0 5 -10 9 -22 10 -20 2
-21 1 -5 -8 9 -6 17 -14 17 -19 0 -13 -38 0 -44 16 -3 8 -10 14 -16 14 -7 0
-8 -6 -2 -17 6 -11 5 -28 -2 -44 -9 -22 -13 -24 -24 -13 -10 12 -10 14 2 14 8
0 14 8 13 19 0 11 -7 17 -14 14 -20 -8 -36 7 -24 21 8 9 7 13 -3 13 -8 0 -13
-8 -11 -17 2 -9 -8 -30 -21 -46 -24 -29 -24 -29 -39 -9 -9 11 -26 19 -38 18
l-22 -3 23 10 c25 11 31 23 5 13 -11 -4 -14 -3 -9 5 4 7 4 12 -1 12 -4 0 -15
-13 -25 -29 -9 -16 -31 -37 -50 -46 -23 -11 -28 -12 -15 -2 18 15 24 33 7 22
-5 -3 -10 -1 -10 5 0 7 8 9 20 5 14 -4 20 -2 20 9 0 20 -17 30 -24 14 -3 -9
-8 -8 -16 5 -15 23 -33 12 -20 -13 14 -27 13 -30 -12 -30 -21 -1 -21 -2 -6
-13 11 -9 14 -18 8 -27 -5 -8 -6 -18 -3 -23 3 -5 -5 -3 -16 5 -15 9 -20 20
-17 33 3 11 1 27 -4 35 -7 11 -10 5 -10 -23 0 -25 -4 -36 -11 -32 -6 4 -8 14
-5 22 3 8 2 12 -3 9 -4 -3 -17 3 -28 14 -21 19 -21 19 -26 -2 -3 -11 -10 -17
-16 -13 -6 3 -11 2 -11 -4 0 -6 -9 -19 -21 -30 -12 -11 -18 -24 -15 -30 4 -7
1 -8 -8 -5 -14 5 -13 9 4 31 11 14 20 31 20 37 0 6 -5 3 -11 -7 -6 -9 -15 -14
-21 -11 -6 4 -8 2 -4 -4 3 -6 3 -13 -2 -16 -4 -2 -9 7 -10 21 -3 42 -12 40
-13 -3 -1 -21 -1 -43 1 -49 1 -5 -4 -4 -11 2 -9 9 -14 69 -17 203 l-5 190 489
3 c535 4 591 3 646 -13z m-302 -244 c0 -3 -4 -8 -10 -11 -5 -3 -10 -1 -10 4 0
6 5 11 10 11 6 0 10 -2 10 -4z m-320 -36 c-8 -5 -19 -10 -25 -10 -5 0 -3 5 5
10 8 5 20 10 25 10 6 0 3 -5 -5 -10z m91 -7 c13 -16 12 -17 -3 -4 -10 7 -18
15 -18 17 0 8 8 3 21 -13z m-233 -27 c-13 -13 -38 -17 -38 -6 0 11 8 16 29 17
16 1 18 -1 9 -11z m109 -1 c0 -8 -4 -12 -9 -9 -5 3 -6 10 -3 15 9 13 12 11 12
-6z m-300 -21 c0 -8 -6 -14 -14 -14 -7 0 -13 -7 -13 -15 0 -13 -4 -12 -22 5
-21 19 -21 20 -3 34 22 16 52 10 52 -10z m335 1 c-8 -16 -9 -16 -15 -1 -4 10
-3 15 3 11 6 -3 10 -1 10 6 0 7 3 10 6 6 3 -3 2 -13 -4 -22z m-67 5 c-3 -5
-12 -10 -18 -10 -7 0 -6 4 3 10 19 12 23 12 15 0z m-138 -25 c0 -8 -4 -12 -9
-9 -5 3 -6 10 -3 15 9 13 12 11 12 -6z m-120 -12 c-9 -2 -14 -9 -11 -15 4 -7
2 -8 -5 -4 -15 10 -4 26 17 25 15 -1 15 -2 -1 -6z m-42 -31 c-3 -3 -11 0 -18
7 -9 10 -8 11 6 5 10 -3 15 -9 12 -12z m3418 -93 c30 -15 77 -60 77 -73 0 -6
-7 0 -16 12 -22 32 -67 52 -114 52 -49 0 -76 -12 -110 -50 l-25 -29 -330 -6
c-181 -4 -355 -7 -385 -8 -36 0 -43 -1 -19 -4 33 -4 35 -6 31 -35 -5 -36 8
-47 58 -50 19 -1 -48 -5 -150 -8 -166 -7 -188 -6 -210 10 -37 25 -39 81 -6
115 28 28 59 31 96 10 21 -12 103 -14 467 -15 l443 0 17 26 c36 56 121 81 176
53z m-6083 -21 c18 -13 40 -37 49 -54 14 -28 23 -33 66 -39 27 -3 321 -5 652
-4 494 1 605 -1 619 -12 67 -55 10 -170 -77 -157 l-29 5 36 -34 c20 -18 35
-35 33 -36 -2 -1 -13 -9 -23 -17 -18 -13 -19 -13 -14 1 3 9 2 22 -3 30 -5 9
-7 4 -6 -16 2 -27 6 -30 32 -28 29 2 29 2 5 -6 -14 -4 -24 -13 -23 -19 2 -6
-4 -9 -12 -6 -10 4 -15 0 -16 -12 -1 -11 -5 -82 -8 -159 -8 -140 -8 -140 -9
82 -1 122 -5 228 -8 237 -6 14 -69 16 -610 16 -525 0 -605 -2 -610 -15 -3 -8
-22 -24 -41 -36 -28 -17 -45 -21 -94 -17 -51 4 -64 9 -94 38 -60 58 -69 135
-25 208 44 71 143 95 210 50z m5207 -140 c-3 -8 -6 -5 -6 6 -1 11 2 17 5 13 3
-3 4 -12 1 -19z m-3822 -138 c3 -5 2 -10 -4 -10 -5 0 -13 5 -16 10 -3 6 -2 10
4 10 5 0 13 -4 16 -10z m-45 -10 c0 -5 -2 -10 -4 -10 -3 0 -8 5 -11 10 -3 6
-1 10 4 10 6 0 11 -4 11 -10z m3847 -164 c72 -62 -1 -189 -98 -169 -44 9 -84
70 -75 117 14 73 114 103 173 52z m-5140 -30 l34 -37 505 1 c505 0 535 -1 556
-34 15 -21 8 -73 -11 -90 -18 -16 -58 -18 -529 -16 l-510 1 -28 -36 c-35 -46
-72 -65 -127 -65 -153 0 -205 226 -69 300 28 15 51 19 91 17 48 -3 58 -8 88
-41z m5470 -52 c-12 -13 -300 -17 -293 -5 5 7 57 11 153 11 81 0 143 -3 140
-6z m-4612 -359 c14 -13 25 -32 25 -42 0 -14 -3 -12 -17 7 -23 35 -33 40 -73
40 -40 0 -50 -5 -73 -40 -9 -13 -17 -19 -17 -11 0 7 13 26 29 42 38 38 91 40
126 4z m-406 -150 c-1 -47 -3 -84 -4 -83 -12 14 -25 49 -17 44 6 -4 10 2 9 14
-2 36 -27 23 -27 -15 0 -19 -4 -35 -9 -35 -5 0 -8 12 -5 27 4 23 3 25 -11 13
-8 -7 -15 -9 -15 -5 0 4 -6 2 -14 -4 -11 -9 -16 -9 -22 0 -5 8 -3 10 7 4 8 -5
7 0 -3 12 -22 24 -23 44 -4 37 8 -3 17 0 22 7 5 9 2 10 -9 6 -9 -3 -19 -2 -23
4 -3 5 -14 7 -23 4 -11 -3 -18 0 -18 10 0 9 9 14 24 13 13 -1 23 -6 23 -10 0
-4 8 -8 18 -8 10 0 24 -6 32 -12 12 -11 12 -10 2 4 -15 19 -3 31 18 17 23 -14
40 -11 34 6 -5 13 -26 15 -115 14 -62 0 -107 -5 -103 -10 3 -5 -7 -9 -21 -9
-15 0 -24 4 -20 10 3 6 -1 10 -9 10 -9 0 -16 5 -16 10 0 6 57 10 150 10 l151
0 -2 -85z m5196 75 c-92 -12 -245 -12 -245 0 0 6 57 9 153 9 119 -2 139 -4 92
-9z m-4375 -9 c0 -6 -10 -8 -21 -6 -12 3 -34 -4 -48 -14 -44 -30 -55 -35 -46
-22 20 34 115 68 115 42z m-1110 -114 c-6 -24 -8 -15 -8 38 0 58 2 64 8 32 4
-21 4 -53 0 -70z m86 86 c-6 -17 -5 -17 8 0 13 16 14 16 20 -9 5 -19 2 -30
-12 -42 -10 -10 -18 -27 -17 -40 1 -13 -2 -25 -7 -28 -5 -3 -8 -2 -7 3 3 20
-2 27 -12 13 -9 -13 -10 -13 -8 0 3 35 0 43 -15 31 -23 -19 -25 2 -3 24 11 11
18 15 14 10 -3 -6 1 -19 10 -30 15 -20 15 -20 11 0 -2 12 2 19 9 18 7 -2 18 7
24 19 l12 22 -29 -19 c-24 -15 -27 -16 -15 -2 9 11 10 17 2 17 -6 0 -11 -4
-11 -9 0 -5 -7 -8 -15 -7 -9 1 -15 6 -15 12 0 8 5 10 38 13 7 0 10 6 7 11 -3
6 -1 10 5 10 7 0 10 -7 6 -17z m1109 -1 c-3 -3 -11 0 -18 7 -9 10 -8 11 6 5
10 -3 15 -9 12 -12z m-1042 -32 c-3 -11 -10 -20 -15 -20 -5 0 -7 -4 -4 -8 3
-5 -1 -9 -9 -9 -8 0 -15 4 -15 9 0 4 4 8 9 8 5 0 13 9 16 20 3 11 10 20 15 20
4 0 6 -9 3 -20z m-3 -60 c0 5 5 10 10 10 6 0 10 -6 10 -13 0 -7 10 -13 21 -14
12 -1 27 -7 33 -14 8 -9 8 -10 0 -6 -20 11 -91 19 -75 9 10 -8 11 -14 1 -28
-9 -16 -11 -16 -6 -2 3 10 1 20 -5 23 -5 4 -6 11 -3 17 4 6 1 8 -7 6 -8 -3
-13 -10 -12 -15 1 -5 -4 -10 -12 -10 -8 0 -11 5 -7 11 4 6 7 14 8 19 1 4 2 9
3 12 0 3 10 1 21 -5 14 -7 20 -7 20 0z m-109 -18 c14 -16 14 -20 1 -32 -13
-11 -14 -11 -10 1 3 8 1 22 -4 32 -11 22 -7 22 13 -1z m216 -29 c-8 -16 -16
-34 -18 -42 -4 -10 -8 -10 -19 3 -11 15 -11 17 1 14 8 -2 13 3 12 10 -2 6 2
12 8 12 5 0 8 4 5 9 -5 8 3 15 22 20 1 1 -4 -11 -11 -26z m-260 -5 c-3 -8 -6
-5 -6 6 -1 11 2 17 5 13 3 -3 4 -12 1 -19z m203 8 c0 -2 -8 -10 -17 -17 -16
-13 -17 -12 -4 4 13 16 21 21 21 13z m87 -36 c0 -30 -3 -37 -12 -30 -6 5 -16
6 -20 2 -5 -4 -5 -1 -1 6 4 7 12 9 18 6 6 -4 9 4 8 17 -3 28 -1 39 3 39 2 0 4
-18 4 -40z m-213 18 c-3 -4 -9 -8 -15 -8 -5 0 -9 4 -9 8 0 5 7 9 15 9 8 0 12
-4 9 -9z m31 3 c3 -5 2 -12 -3 -15 -5 -3 -9 1 -9 9 0 17 3 19 12 6z m-108 -58
c-3 -10 -5 -2 -5 17 0 19 2 27 5 18 2 -10 2 -26 0 -35z m57 21 c3 -8 2 -12 -4
-9 -6 3 -10 10 -10 16 0 14 7 11 14 -7z m50 -6 c-3 -5 -10 -6 -15 -3 -5 4 -9
1 -9 -6 0 -7 -3 -10 -6 -6 -9 9 3 24 20 24 8 0 13 -4 10 -9z m100 4 c3 -5 -1
-9 -9 -9 -8 0 -12 4 -9 9 3 4 7 8 9 8 2 0 6 -4 9 -8z m-49 -41 c-3 -6 -11 -11
-16 -11 -5 0 -4 6 3 14 14 16 24 13 13 -3z m20 -21 c3 -5 1 -10 -4 -10 -6 0
-11 5 -11 10 0 6 2 10 4 10 3 0 8 -4 11 -10z m-78 -6 c-3 -3 -12 -4 -19 -1 -8
3 -5 6 6 6 11 1 17 -2 13 -5z m4286 -62 c62 -27 132 -95 160 -154 21 -47 31
-98 18 -98 -6 0 -8 6 -5 14 3 8 -5 23 -17 35 -13 12 -17 21 -11 21 9 0 8 9 -3
31 -9 17 -19 28 -23 25 -3 -4 0 -12 6 -18 16 -16 15 -31 -2 -25 -22 9 -54 -34
-51 -68 2 -16 1 -24 -2 -17 -3 6 -9 9 -15 6 -7 -4 -7 0 0 12 5 11 8 31 6 47
-2 19 1 25 9 20 7 -4 6 0 -2 10 -7 9 -17 14 -22 11 -5 -3 -9 0 -9 6 0 6 -10 2
-22 -9 -23 -22 -48 -13 -48 18 0 12 -2 13 -9 3 -6 -11 -11 -10 -25 3 -9 9 -16
14 -16 11 0 -3 -14 0 -30 6 -23 7 -34 7 -45 -2 -8 -7 -24 -10 -35 -7 -11 3
-18 1 -15 -3 3 -4 -11 -17 -30 -29 -20 -11 -38 -27 -41 -36 -4 -8 -13 -15 -21
-15 -8 0 -11 -4 -8 -10 3 -5 2 -10 -3 -10 -6 0 -8 -8 -5 -18 3 -13 -2 -18 -21
-20 -14 -1 -26 3 -26 8 0 5 -7 7 -16 3 -12 -4 -15 -1 -12 13 2 10 10 18 16 17
17 -4 15 2 -5 18 -12 10 -14 10 -9 1 4 -7 1 -15 -8 -18 -9 -3 -14 -9 -11 -14
2 -4 -7 -13 -20 -20 -13 -7 -26 -20 -29 -29 -3 -9 -4 4 -2 29 7 92 77 195 165
243 96 53 190 55 294 9z m-3696 -119 c-3 -10 -5 -2 -5 17 0 19 2 27 5 18 2
-10 2 -26 0 -35z m3748 -53 c-1 -11 -4 -22 -7 -26 -4 -3 -4 -13 -1 -22 7 -18
5 -17 -17 11 -11 15 -11 18 0 15 8 -2 15 4 16 12 3 35 12 44 9 10z m-25 6 c0
-3 -4 -8 -10 -11 -5 -3 -10 -1 -10 4 0 6 5 11 10 11 6 0 10 -2 10 -4z m-1107
-60 c72 -30 117 -114 103 -191 -8 -39 -56 -100 -87 -110 -18 -6 -19 -21 -19
-576 l0 -569 -70 0 -70 0 0 575 c0 507 -2 576 -15 581 -9 4 -27 26 -41 51 -22
36 -26 53 -22 97 10 118 116 186 221 142z m1232 -16 c-3 -5 -12 -10 -18 -10
-7 0 -6 4 3 10 19 12 23 12 15 0z m-3295 -38 c127 -78 140 -242 28 -349 -41
-40 -76 -53 -136 -53 -128 1 -237 123 -217 244 27 162 190 241 325 158z m2788
-11 c2 -13 -1 -28 -7 -34 -7 -7 -8 -3 -4 12 3 13 1 21 -6 21 -7 0 -10 -4 -6
-9 3 -5 0 -13 -7 -17 -7 -4 -10 -4 -6 1 4 4 -1 16 -13 26 -14 12 -16 18 -7 22
28 12 53 2 56 -22z m-86 -25 c7 4 8 2 4 -5 -9 -13 -26 -5 -25 12 0 9 2 8 6 -1
2 -6 10 -9 15 -6z m218 -144 c0 -11 19 -14 92 -16 38 -1 52 -4 41 -10 -19 -11
-120 -1 -137 13 -7 6 -17 7 -21 3 -5 -4 -5 -1 -1 6 8 14 26 16 26 4z m-2061
-333 c53 -19 80 -101 46 -145 -12 -16 -14 -78 -15 -376 l0 -358 -70 0 -69 0
-4 373 c-3 204 -8 388 -12 407 -5 28 -2 41 16 63 19 25 48 44 70 46 3 1 20 -4
38 -10z m2655 -40 c-16 -17 -51 -43 -79 -57 l-50 -27 -480 -2 c-347 -2 -475 0
-462 8 13 7 161 10 475 7 l457 -3 56 27 c30 15 66 39 79 53 13 14 26 25 29 25
2 0 -8 -14 -25 -31z m-3444 -77 c398 -3 430 -6 430 -36 0 -6 -5 -4 -10 4 -8
13 -69 16 -417 20 -315 4 -413 8 -428 18 l-20 14 20 -9 c11 -4 202 -9 425 -11z
m-896 -164 c20 -27 32 -48 27 -48 -8 0 -19 14 -58 78 -23 37 -12 26 31 -30z
m163 -156 c29 -19 85 -46 125 -60 l73 -27 475 -5 475 -6 -446 -2 c-282 -1
-467 2 -505 9 -83 15 -209 78 -270 136 -28 26 -35 34 -15 18 20 -17 60 -45 88
-63z m4503 94 c0 -2 -8 -10 -17 -17 -16 -13 -17 -12 -4 4 13 16 21 21 21 13z
m-210 -146 c-8 -5 -19 -10 -25 -10 -5 0 -3 5 5 10 8 5 20 10 25 10 6 0 3 -5
-5 -10z m-73 -26 c-3 -3 -12 -4 -19 -1 -8 3 -5 6 6 6 11 1 17 -2 13 -5z m-54
-11 c-7 -2 -19 -2 -25 0 -7 3 -2 5 12 5 14 0 19 -2 13 -5z m-565 -10 c-125 -2
-332 -2 -460 0 -128 1 -26 2 227 2 253 0 358 -1 233 -2z m280 0 c-10 -2 -26
-2 -35 0 -10 3 -2 5 17 5 19 0 27 -2 18 -5z m170 0 c-26 -2 -71 -2 -100 0 -29
2 -8 3 47 3 55 0 79 -1 53 -3z"/>
<path d="M7669 6923 c-13 -16 -12 -17 4 -4 9 7 17 15 17 17 0 8 -8 3 -21 -13z"/>
<path d="M7825 6871 c-3 -5 -2 -12 3 -15 5 -3 9 1 9 9 0 17 -3 19 -12 6z"/>
<path d="M7666 6823 c-6 -14 -5 -15 5 -6 7 7 10 15 7 18 -3 3 -9 -2 -12 -12z"/>
<path d="M7808 6824 c12 -8 22 -23 23 -32 0 -11 2 -13 6 -4 6 14 -24 52 -41
52 -6 0 0 -7 12 -16z"/>
<path d="M7670 6771 c0 -5 5 -13 10 -16 6 -3 10 -2 10 4 0 5 -4 13 -10 16 -5
3 -10 2 -10 -4z"/>
<path d="M7816 6727 c3 -10 9 -15 12 -12 3 3 0 11 -7 18 -10 9 -11 8 -5 -6z"/>
<path d="M7849 6725 c-1 -3 -2 -8 -3 -12 -1 -5 -5 -14 -9 -20 -5 -8 -3 -13 5
-13 8 0 14 11 14 25 0 22 -4 33 -7 20z"/>
<path d="M7585 6690 c3 -5 8 -10 11 -10 2 0 4 5 4 10 0 6 -5 10 -11 10 -5 0
-7 -4 -4 -10z"/>
<path d="M7781 6686 c2 -2 15 -9 29 -15 24 -11 24 -11 6 3 -16 13 -49 24 -35
12z"/>
<path d="M7796 6634 c-8 -22 -4 -25 11 -9 7 8 9 16 4 19 -5 3 -12 -1 -15 -10z"/>
<path d="M7672 6626 c12 -14 -15 -35 -29 -24 -9 7 -13 7 -13 0 0 -19 28 -21
45 -2 13 14 14 20 3 26 -7 4 -10 4 -6 0z"/>
<path d="M7600 6591 c0 -9 30 -24 36 -18 2 1 -6 8 -16 15 -11 7 -20 8 -20 3z"/>
<path d="M7596 6548 c3 -4 9 -8 15 -8 5 0 9 4 9 8 0 5 -7 9 -15 9 -8 0 -12 -4
-9 -9z"/>
<path d="M7671 6551 c-8 -6 -9 -11 -3 -15 6 -3 14 -1 17 5 9 14 2 20 -14 10z"/>
<path d="M7605 6510 c-2 -3 7 -6 21 -6 13 0 24 3 24 7 0 9 -40 8 -45 -1z"/>
<path d="M3480 5581 c0 -6 4 -13 10 -16 6 -3 7 1 4 9 -7 18 -14 21 -14 7z"/>
<path d="M3424 6948 c-79 -38 -50 -178 36 -178 61 0 99 35 99 90 1 71 -72 119
-135 88z"/>
<path d="M6667 6935 c-31 -32 -39 -71 -22 -112 33 -78 148 -70 175 12 29 89
-87 165 -153 100z"/>
<path d="M7627 6395 c-4 -9 1 -11 14 -8 26 7 32 19 9 20 -10 1 -21 -4 -23 -12z"/>
<path d="M5326 5591 c-3 -5 2 -15 12 -22 15 -12 16 -12 5 2 -7 9 -10 19 -6 22
3 4 4 7 0 7 -3 0 -8 -4 -11 -9z"/>
<path d="M5585 5590 c-3 -5 -1 -10 4 -10 6 0 11 5 11 10 0 6 -2 10 -4 10 -3 0
-8 -4 -11 -10z"/>
<path d="M5535 5550 c-3 -5 1 -10 9 -10 9 0 16 5 16 10 0 6 -4 10 -9 10 -6 0
-13 -4 -16 -10z"/>
<path d="M5162 5526 c7 -8 15 -12 17 -11 5 6 -10 25 -20 25 -5 0 -4 -6 3 -14z"/>
<path d="M5358 5514 c-15 -9 -18 -13 -7 -14 8 0 20 5 27 12 9 9 12 9 12 -1 0
-7 5 -9 10 -6 6 3 10 10 10 14 0 12 -26 9 -52 -5z"/>
<path d="M5086 5484 c-3 -8 -10 -12 -16 -9 -5 3 -10 2 -10 -4 0 -5 9 -9 20 -8
12 1 20 8 20 19 0 22 -6 23 -14 2z"/>
<path d="M4976 5478 c3 -5 10 -6 15 -3 13 9 11 12 -6 12 -8 0 -12 -4 -9 -9z"/>
<path d="M4726 5448 c3 -5 10 -6 15 -3 13 9 11 12 -6 12 -8 0 -12 -4 -9 -9z"/>
<path d="M5070 5438 c0 -4 4 -8 9 -8 6 0 12 4 15 8 3 5 -1 9 -9 9 -8 0 -15 -4
-15 -9z"/>
<path d="M4870 5401 c0 -6 5 -13 10 -16 6 -3 10 1 10 9 0 9 -4 16 -10 16 -5 0
-10 -4 -10 -9z"/>
<path d="M4769 5393 c-12 -16 -12 -17 2 -6 9 7 20 9 24 5 5 -4 5 -1 1 6 -9 16
-11 15 -27 -5z"/>
<path d="M7252 5100 c0 -14 2 -19 5 -12 2 6 2 18 0 25 -3 6 -5 1 -5 -13z"/>
<path d="M2568 4188 c-3 -7 -13 -13 -23 -13 -10 0 -19 -7 -20 -16 -2 -9 3 -16
11 -16 7 0 11 3 9 7 -2 4 7 13 20 20 14 7 25 17 25 22 0 13 -18 9 -22 -4z"/>
<path d="M6761 3827 c2 -1 13 -9 24 -17 19 -14 19 -14 6 3 -7 9 -18 17 -24 17
-6 0 -8 -1 -6 -3z"/>
<path d="M6466 3785 c-18 -14 -18 -14 1 -12 11 0 20 7 20 14 0 7 -1 13 -1 13
-1 0 -9 -7 -20 -15z"/>
<path d="M6355 3720 c3 -5 8 -10 11 -10 2 0 4 5 4 10 0 6 -5 10 -11 10 -5 0
-7 -4 -4 -10z"/>
<path d="M6385 3701 c-3 -12 -11 -21 -16 -21 -6 0 -7 -5 -3 -11 4 -8 12 -2 21
15 8 15 12 30 10 33 -3 2 -8 -5 -12 -16z"/>
<path d="M6285 3690 c-3 -5 -1 -10 4 -10 6 0 11 5 11 10 0 6 -2 10 -4 10 -3 0
-8 -4 -11 -10z"/>
<path d="M3415 3508 c-31 -18 -44 -40 -45 -76 0 -44 14 -68 50 -87 43 -22 68
-19 101 14 22 23 29 39 29 69 0 68 -77 113 -135 80z"/>
<path d="M6320 3610 c0 -5 7 -7 15 -4 8 4 15 8 15 10 0 2 -7 4 -15 4 -8 0 -15
-4 -15 -10z"/>
</g>
</svg>
